<svg xmlns="http://www.w3.org/2000/svg" viewBox="0 0 60 40"><rect width="60" height="40" fill="#012169"/><clipPath id="c"><rect width="30" height="20"/></clipPath><g clip-path="url(#c)"><path d="M0,0 L30,20 M30,0 L0,20" stroke="#fff" stroke-width="4"/><path d="M0,0 L30,20" stroke="#c8102e" stroke-width="1.6"/><path d="M30,0 L0,20" stroke="#c8102e" stroke-width="1.6"/><rect x="11.5" width="7" height="20" fill="#fff"/><rect y="6.5" width="30" height="7" fill="#fff"/><rect x="13" width="4" height="20" fill="#c8102e"/><rect y="8" width="30" height="4" fill="#c8102e"/></g><polygon points="15.00,25.00 15.87,28.20 18.91,26.88 16.95,29.55 19.87,31.11 16.56,31.25 17.17,34.50 15.00,32.00 12.83,34.50 13.44,31.25 10.13,31.11 13.05,29.55 11.09,26.88 14.13,28.20" fill="#fff"/><polygon points="46.00,6.40 46.47,8.02 48.03,7.38 47.06,8.76 48.53,9.58 46.85,9.68 47.13,11.34 46.00,10.09 44.87,11.34 45.15,9.68 43.47,9.58 44.94,8.76 43.97,7.38 45.53,8.02" fill="#fff"/><polygon points="52.00,15.40 52.47,17.02 54.03,16.38 53.06,17.76 54.53,18.58 52.85,18.68 53.13,20.34 52.00,19.09 50.87,20.34 51.15,18.68 49.47,18.58 50.94,17.76 49.97,16.38 51.53,17.02" fill="#fff"/><polygon points="44.00,19.40 44.47,21.02 46.03,20.38 45.06,21.76 46.53,22.58 44.85,22.68 45.13,24.34 44.00,23.09 42.87,24.34 43.15,22.68 41.47,22.58 42.94,21.76 41.97,20.38 43.53,21.02" fill="#fff"/><polygon points="46.00,28.40 46.47,30.02 48.03,29.38 47.06,30.76 48.53,31.58 46.85,31.68 47.13,33.34 46.00,32.09 44.87,33.34 45.15,31.68 43.47,31.58 44.94,30.76 43.97,29.38 45.53,30.02" fill="#fff"/><polygon points="49.50,13.60 49.85,14.52 50.83,14.57 50.06,15.18 50.32,16.13 49.50,15.59 48.68,16.13 48.94,15.18 48.17,14.57 49.15,14.52" fill="#fff"/></svg>