<svg xmlns="http://www.w3.org/2000/svg" viewBox="0 0 60 40"><rect width="60" height="40" fill="#002395"/><polygon points="14,2 58,2 58,38" fill="#fecb00"/><polygon points="11.00,-2.30 11.56,-0.77 13.19,-0.71 11.90,0.29 12.35,1.86 11.00,0.95 9.65,1.86 10.10,0.29 8.81,-0.71 10.44,-0.77" fill="#fff"/><polygon points="16.50,2.45 17.06,3.98 18.69,4.04 17.40,5.04 17.85,6.61 16.50,5.70 15.15,6.61 15.60,5.04 14.31,4.04 15.94,3.98" fill="#fff"/><polygon points="22.00,7.20 22.56,8.73 24.19,8.79 22.90,9.79 23.35,11.36 22.00,10.45 20.65,11.36 21.10,9.79 19.81,8.79 21.44,8.73" fill="#fff"/><polygon points="27.50,11.95 28.06,13.48 29.69,13.54 28.40,14.54 28.85,16.11 27.50,15.20 26.15,16.11 26.60,14.54 25.31,13.54 26.94,13.48" fill="#fff"/><polygon points="33.00,16.70 33.56,18.23 35.19,18.29 33.90,19.29 34.35,20.86 33.00,19.95 31.65,20.86 32.10,19.29 30.81,18.29 32.44,18.23" fill="#fff"/><polygon points="38.50,21.45 39.06,22.98 40.69,23.04 39.40,24.04 39.85,25.61 38.50,24.70 37.15,25.61 37.60,24.04 36.31,23.04 37.94,22.98" fill="#fff"/><polygon points="44.00,26.20 44.56,27.73 46.19,27.79 44.90,28.79 45.35,30.36 44.00,29.45 42.65,30.36 43.10,28.79 41.81,27.79 43.44,27.73" fill="#fff"/><polygon points="49.50,30.95 50.06,32.48 51.69,32.54 50.40,33.54 50.85,35.11 49.50,34.20 48.15,35.11 48.60,33.54 47.31,32.54 48.94,32.48" fill="#fff"/><polygon points="55.00,35.70 55.56,37.23 57.19,37.29 55.90,38.29 56.35,39.86 55.00,38.95 53.65,39.86 54.10,38.29 52.81,37.29 54.44,37.23" fill="#fff"/></svg>