<svg xmlns="http://www.w3.org/2000/svg" viewBox="0 0 60 40">
  <rect width="60" height="40" fill="#fff"/>
  <rect x="0" y="0" width="15" height="40" fill="#d52b1e"/>
  <rect x="45" y="0" width="15" height="40" fill="#d52b1e"/>
  <g transform="translate(38.15,16.65) scale(0.46)" fill="#d52b1e">
    <path d="m -18.4,32.5 0.6,-11.2 c 0,-0.5 -0.5,-0.9 -1,-0.8 l -11,1.9 1.5,-4.1 c 0.1,-0.4 0,-0.8 -0.3,-1 l -12,-9.7 2.7,-1.3 c 0.4,-0.2 0.5,-0.6 0.4,-1 l -2.4,-7.2 6.9,1.5 c 0.5,0.1 0.8,-0.2 0.9,-0.5 l 1.3,-3.1 5.4,5.8 c 0.4,0.4 1.1,0.1 1,-0.5 l -2.6,-13.5 4.2,2.4 c 0.4,0.2 0.9,0.1 1.1,-0.3 l 4.1,-7.7 4.1,7.7 c 0.2,0.4 0.7,0.5 1.1,0.3 l 4.2,-2.4 -2.6,13.5 c -0.1,0.6 0.6,0.9 1,0.5 l 5.4,-5.8 1.3,3.1 c 0.1,0.3 0.4,0.6 0.9,0.5 l 6.9,-1.5 -2.4,7.2 c -0.1,0.4 0,0.8 0.4,1 l 2.7,1.3 -12,9.7 c -0.3,0.2 -0.4,0.6 -0.3,1 l 1.5,4.1 -11,-1.9 c -0.5,-0.1 -1,0.3 -1,0.8 l 0.6,11.2 z"/>
  </g>
</svg>
