<svg xmlns="http://www.w3.org/2000/svg" viewBox="0 0 60 40">
  <rect width="60" height="40" fill="#fff"/>
  <g fill="#b22234">
    <rect y="0" width="60" height="3.077"/>
    <rect y="6.154" width="60" height="3.077"/>
    <rect y="12.308" width="60" height="3.077"/>
    <rect y="18.462" width="60" height="3.077"/>
    <rect y="24.615" width="60" height="3.077"/>
    <rect y="30.769" width="60" height="3.077"/>
    <rect y="36.923" width="60" height="3.077"/>
  </g>
  <rect width="24" height="21.538" fill="#3c3b6e"/>
  <g fill="#fff">
    <g>
      <circle cx="2.5" cy="2.2" r="0.85"/><circle cx="7.5" cy="2.2" r="0.85"/><circle cx="12.5" cy="2.2" r="0.85"/><circle cx="17.5" cy="2.2" r="0.85"/><circle cx="22" cy="2.2" r="0.85"/>
      <circle cx="5" cy="5.5" r="0.85"/><circle cx="10" cy="5.5" r="0.85"/><circle cx="15" cy="5.5" r="0.85"/><circle cx="20" cy="5.5" r="0.85"/>
      <circle cx="2.5" cy="8.8" r="0.85"/><circle cx="7.5" cy="8.8" r="0.85"/><circle cx="12.5" cy="8.8" r="0.85"/><circle cx="17.5" cy="8.8" r="0.85"/><circle cx="22" cy="8.8" r="0.85"/>
      <circle cx="5" cy="12.1" r="0.85"/><circle cx="10" cy="12.1" r="0.85"/><circle cx="15" cy="12.1" r="0.85"/><circle cx="20" cy="12.1" r="0.85"/>
      <circle cx="2.5" cy="15.4" r="0.85"/><circle cx="7.5" cy="15.4" r="0.85"/><circle cx="12.5" cy="15.4" r="0.85"/><circle cx="17.5" cy="15.4" r="0.85"/><circle cx="22" cy="15.4" r="0.85"/>
      <circle cx="5" cy="18.7" r="0.85"/><circle cx="10" cy="18.7" r="0.85"/><circle cx="15" cy="18.7" r="0.85"/><circle cx="20" cy="18.7" r="0.85"/>
    </g>
  </g>
</svg>
